<svg xmlns="http://www.w3.org/2000/svg" width="97" height="97" viewBox="0 0 97 97">
  <g id="Group_4451" data-name="Group 4451" transform="translate(-775 -3384)">
    <rect id="Rectangle_2401" data-name="Rectangle 2401" width="97" height="97" transform="translate(775 3384)" fill="none"/>
    <g id="Group_4452" data-name="Group 4452" transform="translate(5.068 5.649)">
      <path id="Path_3546" data-name="Path 3546" d="M16.639,12.058h6.5a.325.325,0,0,0,.231-.556L11.964.094a.325.325,0,0,0-.458,0L.1,11.5a.325.325,0,0,0,.231.556h6.5a.325.325,0,0,1,.325.325V34.059h9.159V12.383A.325.325,0,0,1,16.639,12.058Z" transform="translate(810.16 3388.81)" fill="#bcc98f"/>
      <path id="Path_3547" data-name="Path 3547" d="M9.939,7.2h3.884a.194.194,0,0,0,.138-.332L7.146.056a.194.194,0,0,0-.274,0L.058,6.871A.194.194,0,0,0,.2,7.2H4.08a.194.194,0,0,1,.194.194l.194,20.152H9.939L9.745,7.4A.194.194,0,0,1,9.939,7.2Z" transform="translate(833.302 3402.524)" fill="#bcc98f"/>
      <g id="Group_4450" data-name="Group 4450" transform="translate(787.903 3403.709)">
        <g id="Group_4417" data-name="Group 4417" transform="translate(30.543 40.336)">
          <path id="Path_3435" data-name="Path 3435" d="M-73.2,231.478c0,2.051-1.436,2.88-3.208,1.855a7.088,7.088,0,0,1-3.208-5.552c0-2.044,1.436-2.878,3.208-1.859A7.094,7.094,0,0,1-73.2,231.478Z" transform="translate(79.614 -223.796)" fill="#333"/>
          <path id="Path_3436" data-name="Path 3436" d="M-70.56,230.3a7.08,7.08,0,0,0-3.208-5.555A2.271,2.271,0,0,0-76,224.5h0l-2.95,1.706a2.267,2.267,0,0,1,2.251.228,7.094,7.094,0,0,1,3.208,5.556,2.321,2.321,0,0,1-.867,2.038h0l2.921-1.693h0A2.293,2.293,0,0,0-70.56,230.3Z" transform="translate(79.904 -224.307)" fill="#474747"/>
          <path id="Path_3437" data-name="Path 3437" d="M-73.357,231.428a7.081,7.081,0,0,0-3.207-5.555,2.278,2.278,0,0,0-2.228-.249l-.155.093a2.267,2.267,0,0,1,2.251.228,7.094,7.094,0,0,1,3.208,5.556,2.321,2.321,0,0,1-.867,2.038h0l.126-.079A2.255,2.255,0,0,0-73.357,231.428Z" transform="translate(79.904 -223.819)" fill="#575757"/>
          <path id="Path_3438" data-name="Path 3438" d="M-74.788,230.3c0,1.266-.89,1.782-1.987,1.148a4.4,4.4,0,0,1-1.987-3.443c0-1.267.889-1.783,1.987-1.15A4.406,4.406,0,0,1-74.788,230.3Z" transform="translate(79.983 -223.319)" fill="#919191"/>
          <path id="Path_3439" data-name="Path 3439" d="M-76.46,229.058c0,.444-.315.625-.7.406a1.554,1.554,0,0,1-.705-1.218c0-.446.317-.626.705-.408A1.559,1.559,0,0,1-76.46,229.058Z" transform="translate(80.371 -222.817)" fill="#707070"/>
          <path id="Path_3440" data-name="Path 3440" d="M-77.135,228.559c0,.112-.083.163-.185.1a.428.428,0,0,1-.186-.321c0-.113.083-.163.186-.1A.4.4,0,0,1-77.135,228.559Z" transform="translate(80.528 -222.615)" fill="#575757"/>
          <path id="Path_3441" data-name="Path 3441" d="M-76.993,228.416a.081.081,0,0,1-.033.049c-.049.024-.133-.019-.185-.1s-.053-.192,0-.215a.066.066,0,0,1,.036-.014.24.24,0,0,0,.033.166A.2.2,0,0,0-76.993,228.416Z" transform="translate(80.638 -222.648)" fill="#4f4f4f"/>
          <path id="Path_3442" data-name="Path 3442" d="M-77.014,228.416a.2.2,0,0,1-.149-.116.24.24,0,0,1-.033-.166.232.232,0,0,1,.149.118A.218.218,0,0,1-77.014,228.416Z" transform="translate(80.66 -222.648)" fill="#2b2b2b"/>
          <path id="Path_3443" data-name="Path 3443" d="M-77,228.919a.11.11,0,0,1-.032.05c-.05.026-.133-.019-.188-.1s-.05-.189,0-.222a.058.058,0,0,1,.037-.006.239.239,0,0,0,.036.168A.193.193,0,0,0-77,228.919Z" transform="translate(80.636 -222.431)" fill="#4f4f4f"/>
          <path id="Path_3444" data-name="Path 3444" d="M-77.021,228.918a.193.193,0,0,1-.146-.115.239.239,0,0,1-.036-.168.207.207,0,0,1,.151.113A.253.253,0,0,1-77.021,228.918Z" transform="translate(80.657 -222.431)" fill="#2b2b2b"/>
          <path id="Path_3445" data-name="Path 3445" d="M-77.434,228.657a.073.073,0,0,1-.036.052c-.05.026-.133-.017-.182-.11s-.052-.182,0-.215a.1.1,0,0,1,.037,0,.243.243,0,0,0,.032.169A.206.206,0,0,0-77.434,228.657Z" transform="translate(80.447 -222.542)" fill="#4f4f4f"/>
          <path id="Path_3446" data-name="Path 3446" d="M-77.456,228.657a.206.206,0,0,1-.149-.109.243.243,0,0,1-.032-.169.192.192,0,0,1,.146.116A.214.214,0,0,1-77.456,228.657Z" transform="translate(80.469 -222.542)" fill="#2b2b2b"/>
          <path id="Path_3447" data-name="Path 3447" d="M-77.432,228.165a.068.068,0,0,1-.03.044c-.052.033-.138-.02-.186-.1s-.053-.189,0-.219a.076.076,0,0,1,.037-.01.215.215,0,0,0,.034.165A.208.208,0,0,0-77.432,228.165Z" transform="translate(80.449 -222.761)" fill="#4f4f4f"/>
          <path id="Path_3448" data-name="Path 3448" d="M-77.453,228.165a.208.208,0,0,1-.146-.125.215.215,0,0,1-.034-.165.207.207,0,0,1,.149.122A.224.224,0,0,1-77.453,228.165Z" transform="translate(80.47 -222.761)" fill="#2b2b2b"/>
          <path id="Path_3449" data-name="Path 3449" d="M-76.559,227.628a.446.446,0,0,1-.606.044,1.6,1.6,0,0,1-.7-1.074,1,1,0,0,1,.209.042,1.568,1.568,0,0,0,.662.906A.566.566,0,0,0-76.559,227.628Z" transform="translate(80.373 -223.314)" fill="#575757"/>
          <path id="Path_3450" data-name="Path 3450" d="M-76.533,227.386a.573.573,0,0,1-.089.229.566.566,0,0,1-.433-.082,1.568,1.568,0,0,1-.662-.906,1.915,1.915,0,0,1,.489.211A3.539,3.539,0,0,1-76.533,227.386Z" transform="translate(80.436 -223.301)" fill="#2b2b2b"/>
          <path id="Path_3451" data-name="Path 3451" d="M-75.987,230.193a1.058,1.058,0,0,1-.926.225c-.136-.417-.069-.783.191-.876a.02.02,0,0,1,.019-.009.862.862,0,0,0-.036.758A1.1,1.1,0,0,0-75.987,230.193Z" transform="translate(80.755 -222.042)" fill="#575757"/>
          <path id="Path_3452" data-name="Path 3452" d="M-75.894,230.039a.863.863,0,0,1-.146.159,1.1,1.1,0,0,1-.753.1.862.862,0,0,1,.036-.758C-76.5,229.461-76.143,229.675-75.894,230.039Z" transform="translate(80.808 -222.046)" fill="#2b2b2b"/>
          <path id="Path_3453" data-name="Path 3453" d="M-75.75,229.679c0,.03,0,.066,0,.1a1.538,1.538,0,0,1-.754-.993c-.1-.4.01-.7.245-.761a.752.752,0,0,0-.069.639,1.65,1.65,0,0,0,.578.889C-75.753,229.593-75.75,229.634-75.75,229.679Z" transform="translate(80.945 -222.697)" fill="#575757"/>
          <path id="Path_3454" data-name="Path 3454" d="M-75.806,229.556a1.65,1.65,0,0,1-.578-.889.752.752,0,0,1,.069-.639.2.2,0,0,1,.083-.016A3.958,3.958,0,0,1-75.806,229.556Z" transform="translate(80.998 -222.701)" fill="#2b2b2b"/>
          <path id="Path_3455" data-name="Path 3455" d="M-77.413,229.914a.584.584,0,0,1-.067.228,4.576,4.576,0,0,1-1.082-1.623.5.5,0,0,1,.221,0A4.684,4.684,0,0,0-77.413,229.914Z" transform="translate(80.07 -222.488)" fill="#575757"/>
          <path id="Path_3456" data-name="Path 3456" d="M-77.48,229.911a4.684,4.684,0,0,1-.929-1.4,1.131,1.131,0,0,1,.675.528A1.418,1.418,0,0,1-77.48,229.911Z" transform="translate(80.136 -222.485)" fill="#2b2b2b"/>
          <path id="Path_3457" data-name="Path 3457" d="M-78.055,228.056c-.148.189-.424.185-.7-.023,0-.037,0-.067,0-.1a1.5,1.5,0,0,1,.433-1.181c.01.009.02.026.027.032a1.689,1.689,0,0,0-.288,1.023c0,.032,0,.069,0,.1A.618.618,0,0,0-78.055,228.056Z" transform="translate(79.983 -223.247)" fill="#575757"/>
          <path id="Path_3458" data-name="Path 3458" d="M-78.041,227.915a.541.541,0,0,1-.066.132.618.618,0,0,1-.533-.145c0-.034,0-.072,0-.1a1.689,1.689,0,0,1,.288-1.023A1.346,1.346,0,0,1-78.041,227.915Z" transform="translate(80.035 -223.238)" fill="#2b2b2b"/>
          <path id="Path_3459" data-name="Path 3459" d="M-74.788,230.3c0,1.266-.89,1.782-1.987,1.148a4.4,4.4,0,0,1-1.987-3.443c0-1.267.889-1.783,1.987-1.15A4.406,4.406,0,0,1-74.788,230.3Z" transform="translate(79.983 -223.319)" fill="#e0e0e0"/>
        </g>
        <g id="Group_4418" data-name="Group 4418" transform="translate(7.191 26.853)">
          <path id="Path_3460" data-name="Path 3460" d="M-92.446,220.331c0,2.04-1.43,2.864-3.192,1.845a7.049,7.049,0,0,1-3.19-5.521c0-2.033,1.428-2.863,3.19-1.849A7.056,7.056,0,0,1-92.446,220.331Z" transform="translate(98.828 -212.69)" fill="#333"/>
          <path id="Path_3461" data-name="Path 3461" d="M-89.821,219.155a7.039,7.039,0,0,0-3.19-5.524,2.256,2.256,0,0,0-2.214-.248h0l-2.932,1.7a2.248,2.248,0,0,1,2.237.227,7.056,7.056,0,0,1,3.192,5.526,2.307,2.307,0,0,1-.864,2.027h0l2.905-1.684h0A2.277,2.277,0,0,0-89.821,219.155Z" transform="translate(99.113 -213.193)" fill="#474747"/>
          <path id="Path_3462" data-name="Path 3462" d="M-92.6,220.281a7.037,7.037,0,0,0-3.19-5.524,2.268,2.268,0,0,0-2.214-.249l-.154.094a2.248,2.248,0,0,1,2.237.227,7.056,7.056,0,0,1,3.192,5.526,2.307,2.307,0,0,1-.864,2.027h0l.127-.078A2.246,2.246,0,0,0-92.6,220.281Z" transform="translate(99.113 -212.713)" fill="#575757"/>
          <path id="Path_3463" data-name="Path 3463" d="M-94.024,219.167c0,1.257-.884,1.772-1.976,1.14a4.37,4.37,0,0,1-1.976-3.423c0-1.262.884-1.773,1.976-1.145A4.383,4.383,0,0,1-94.024,219.167Z" transform="translate(99.191 -212.223)" fill="#919191"/>
          <path id="Path_3464" data-name="Path 3464" d="M-95.683,217.937c0,.442-.312.622-.7.4a1.544,1.544,0,0,1-.7-1.212c0-.443.314-.623.7-.408A1.552,1.552,0,0,1-95.683,217.937Z" transform="translate(99.571 -211.73)" fill="#707070"/>
          <path id="Path_3465" data-name="Path 3465" d="M-96.35,217.443c0,.111-.084.161-.185.1a.421.421,0,0,1-.184-.318c0-.113.081-.164.184-.1A.4.4,0,0,1-96.35,217.443Z" transform="translate(99.726 -211.531)" fill="#575757"/>
          <path id="Path_3466" data-name="Path 3466" d="M-96.207,217.3a.087.087,0,0,1-.034.048c-.048.024-.133-.02-.184-.1s-.051-.191,0-.215a.083.083,0,0,1,.036-.013.233.233,0,0,0,.034.165A.2.2,0,0,0-96.207,217.3Z" transform="translate(99.834 -211.564)" fill="#4f4f4f"/>
          <path id="Path_3467" data-name="Path 3467" d="M-96.228,217.3a.2.2,0,0,1-.148-.115.233.233,0,0,1-.034-.165.225.225,0,0,1,.148.117A.218.218,0,0,1-96.228,217.3Z" transform="translate(99.855 -211.564)" fill="#2b2b2b"/>
          <path id="Path_3468" data-name="Path 3468" d="M-96.214,217.8a.109.109,0,0,1-.033.05c-.048.026-.131-.02-.185-.1s-.05-.188,0-.221a.057.057,0,0,1,.037-.006.237.237,0,0,0,.036.167A.192.192,0,0,0-96.214,217.8Z" transform="translate(99.832 -211.35)" fill="#4f4f4f"/>
          <path id="Path_3469" data-name="Path 3469" d="M-96.235,217.8a.192.192,0,0,1-.145-.114.237.237,0,0,1-.036-.167.206.206,0,0,1,.148.113A.246.246,0,0,1-96.235,217.8Z" transform="translate(99.853 -211.35)" fill="#2b2b2b"/>
          <path id="Path_3470" data-name="Path 3470" d="M-96.65,217.542a.069.069,0,0,1-.034.05c-.05.027-.133-.016-.182-.108s-.05-.181,0-.214a.1.1,0,0,1,.037,0,.236.236,0,0,0,.033.168A.2.2,0,0,0-96.65,217.542Z" transform="translate(99.646 -211.459)" fill="#4f4f4f"/>
          <path id="Path_3471" data-name="Path 3471" d="M-96.671,217.542a.2.2,0,0,1-.147-.108.236.236,0,0,1-.033-.168.189.189,0,0,1,.145.115A.213.213,0,0,1-96.671,217.542Z" transform="translate(99.667 -211.459)" fill="#2b2b2b"/>
          <path id="Path_3472" data-name="Path 3472" d="M-96.646,217.049a.072.072,0,0,1-.031.043c-.05.034-.135-.019-.185-.1s-.051-.188,0-.218a.081.081,0,0,1,.038-.01.214.214,0,0,0,.034.164A.207.207,0,0,0-96.646,217.049Z" transform="translate(99.648 -211.674)" fill="#4f4f4f"/>
          <path id="Path_3473" data-name="Path 3473" d="M-96.667,217.049a.207.207,0,0,1-.145-.124.214.214,0,0,1-.034-.164.2.2,0,0,1,.147.121A.224.224,0,0,1-96.667,217.049Z" transform="translate(99.669 -211.674)" fill="#2b2b2b"/>
          <path id="Path_3474" data-name="Path 3474" d="M-95.78,216.507a.442.442,0,0,1-.6.046,1.592,1.592,0,0,1-.694-1.068.922.922,0,0,1,.21.041,1.557,1.557,0,0,0,.659.9A.551.551,0,0,0-95.78,216.507Z" transform="translate(99.573 -212.217)" fill="#575757"/>
          <path id="Path_3475" data-name="Path 3475" d="M-95.754,216.268a.525.525,0,0,1-.088.227.551.551,0,0,1-.429-.08,1.557,1.557,0,0,1-.659-.9,1.919,1.919,0,0,1,.485.208A3.5,3.5,0,0,1-95.754,216.268Z" transform="translate(99.636 -212.205)" fill="#2b2b2b"/>
          <path id="Path_3476" data-name="Path 3476" d="M-95.205,219.076a1.049,1.049,0,0,1-.921.222c-.137-.415-.068-.778.188-.87a.022.022,0,0,1,.02-.009.845.845,0,0,0-.036.753A1.091,1.091,0,0,0-95.205,219.076Z" transform="translate(99.948 -210.968)" fill="#575757"/>
          <path id="Path_3477" data-name="Path 3477" d="M-95.113,218.922a.851.851,0,0,1-.144.158,1.09,1.09,0,0,1-.748.1.845.845,0,0,1,.036-.753C-95.711,218.346-95.36,218.56-95.113,218.922Z" transform="translate(100 -210.973)" fill="#2b2b2b"/>
          <path id="Path_3478" data-name="Path 3478" d="M-94.969,218.556c0,.03,0,.066,0,.1a1.533,1.533,0,0,1-.75-.988c-.1-.4.01-.691.244-.758a.751.751,0,0,0-.068.637,1.647,1.647,0,0,0,.573.884C-94.97,218.47-94.969,218.51-94.969,218.556Z" transform="translate(100.135 -211.611)" fill="#575757"/>
          <path id="Path_3479" data-name="Path 3479" d="M-95.024,218.433a1.647,1.647,0,0,1-.573-.884.751.751,0,0,1,.068-.637.214.214,0,0,1,.083-.014A3.927,3.927,0,0,1-95.024,218.433Z" transform="translate(100.188 -211.616)" fill="#2b2b2b"/>
          <path id="Path_3480" data-name="Path 3480" d="M-96.632,218.792a.574.574,0,0,1-.068.225,4.564,4.564,0,0,1-1.076-1.612.5.5,0,0,1,.221,0A4.658,4.658,0,0,0-96.632,218.792Z" transform="translate(99.275 -211.406)" fill="#575757"/>
          <path id="Path_3481" data-name="Path 3481" d="M-96.7,218.789a4.658,4.658,0,0,1-.924-1.391,1.125,1.125,0,0,1,.671.525A1.407,1.407,0,0,1-96.7,218.789Z" transform="translate(99.341 -211.403)" fill="#2b2b2b"/>
          <path id="Path_3482" data-name="Path 3482" d="M-97.273,216.935c-.145.188-.421.184-.7-.024,0-.036,0-.066,0-.1a1.5,1.5,0,0,1,.432-1.175.283.283,0,0,0,.027.03,1.684,1.684,0,0,0-.287,1.019c0,.031,0,.068,0,.1A.61.61,0,0,0-97.273,216.935Z" transform="translate(99.191 -212.151)" fill="#575757"/>
          <path id="Path_3483" data-name="Path 3483" d="M-97.258,216.795a.566.566,0,0,1-.067.131.61.61,0,0,1-.529-.145c0-.033,0-.07,0-.1a1.684,1.684,0,0,1,.287-1.019A1.345,1.345,0,0,1-97.258,216.795Z" transform="translate(99.242 -212.142)" fill="#2b2b2b"/>
          <path id="Path_3484" data-name="Path 3484" d="M-94.024,219.167c0,1.257-.884,1.772-1.976,1.14a4.37,4.37,0,0,1-1.976-3.423c0-1.262.884-1.773,1.976-1.145A4.383,4.383,0,0,1-94.024,219.167Z" transform="translate(99.191 -212.223)" fill="#e0e0e0"/>
        </g>
        <path id="Path_3485" data-name="Path 3485" d="M-58.137,243.392v-7.41l-2.927-4.594-3.38-9.789-4.59-5.52L-104.159,195.8l-1.068,10.826V216.2l6.9,3.97c0-.017,0-.035,0-.052a2.6,2.6,0,0,1,3.915-2.282c1.766,1.019,3.731,4.674,3.731,6.713,0,.017,0,.032,0,.05l15.806,9.109c0-.015,0-.029,0-.043a2.6,2.6,0,0,1,3.915-2.282c1.766,1.019,3.731,4.674,3.731,6.713,0,.012,0,.022,0,.035Z" transform="translate(105.227 -189.437)" fill="#1d8649"/>
        <path id="Path_3487" data-name="Path 3487" d="M-69.082,225.716l-7.237-4.183v-5.869l4.778,2.757Z" transform="translate(111.53 -185.106)" fill="#c8e5d4"/>
        <path id="Path_3488" data-name="Path 3488" d="M-54.544,209.063-88.973,190.9l-15.377,6.362,35.125,20.279Z" transform="translate(105.418 -190.898)" fill="#449b54"/>
        <path id="Path_3489" data-name="Path 3489" d="M-56.243,211.01l-14.679,8.475-4.59-5.519,14.681-8.476Z" transform="translate(111.706 -187.324)" fill="#449b54"/>
        <path id="Path_3490" data-name="Path 3490" d="M-53.685,219.816l-14.679,8.47-3.379-9.789,14.679-8.475Z" transform="translate(112.527 -186.336)" fill="#449b54"/>
        <path id="Path_3492" data-name="Path 3492" d="M-54.688,219.464l-13.528,7.811-3.064-8.885,13.526-7.811Z" transform="translate(112.628 -186.215)" fill="#c8e5d4"/>
        <path id="Path_3493" data-name="Path 3493" d="M-51.361,222.655l-14.681,8.473-2.927-4.6,14.679-8.47Z" transform="translate(113.132 -184.583)" fill="#449b54"/>
        <path id="Path_3494" data-name="Path 3494" d="M-51.885,229.239l-14.681,8.477v-7.41l14.681-8.473Z" transform="translate(113.656 -183.761)" fill="#0e6231"/>
        <path id="Path_3495" data-name="Path 3495" d="M-62.509,230.5l-2.886,1.664v-1.946l2.886-1.669Z" transform="translate(113.911 -182.297)" fill="#e6f0c5"/>
        <path id="Path_3496" data-name="Path 3496" d="M-57.418,228.647l-5.132,2.962v-3.422l5.132-2.962Z" transform="translate(114.532 -183.022)" fill="#787878"/>
        <path id="Path_3497" data-name="Path 3497" d="M-65.287,231.866l-.6.347v-1.947l.6-.346Z" transform="translate(113.803 -181.998)" fill="#cf6400"/>
        <path id="Path_3498" data-name="Path 3498" d="M-54.985,226.156l-2.887,1.667v-1.946l2.887-1.67Z" transform="translate(115.552 -183.244)" fill="#e6f0c5"/>
        <path id="Path_3499" data-name="Path 3499" d="M-54.9,225.869l-.6.348v-1.95l.6-.342Z" transform="translate(116.068 -183.305)" fill="#cf6400"/>
        <path id="Path_3500" data-name="Path 3500" d="M-72.676,226.644-104.7,208.161v-1.448l32.027,18.493Z" transform="translate(105.341 -187.058)" fill="#e6f0c5"/>
      </g>
    </g>
  </g>
</svg>
