<svg xmlns="http://www.w3.org/2000/svg" xmlns:xlink="http://www.w3.org/1999/xlink" width="97" height="97" viewBox="0 0 97 97">
  <defs>
    <clipPath id="clip-path">
      <path id="Path_3533" data-name="Path 3533" d="M-322.337,392.351l1.227,2.2a62.583,62.583,0,0,1-6.066,14.832l-1.228-2.2A62.553,62.553,0,0,0-322.337,392.351Z" transform="translate(328.403 -392.351)" fill="none"/>
    </clipPath>
    <clipPath id="clip-path-2">
      <path id="Path_3536" data-name="Path 3536" d="M-330.535,416.343l1.227,2.2c-.38.633-.8,1.237-1.209,1.86l-1.228-2.2C-331.339,417.58-330.915,416.976-330.535,416.343Z" transform="translate(331.744 -416.343)" fill="none"/>
    </clipPath>
    <clipPath id="clip-path-3">
      <path id="Path_3540" data-name="Path 3540" d="M-332.853,419.008l1.228,2.2c-.786,1.256-1.69,2.436-2.562,3.633l-1.227-2.2C-334.542,421.444-333.638,420.264-332.853,419.008Z" transform="translate(335.414 -419.008)" fill="none"/>
    </clipPath>
    <clipPath id="clip-path-4">
      <path id="Path_3544" data-name="Path 3544" d="M-350.872,424.214l1.227,2.2a77.047,77.047,0,0,1-5.833,6.73,76.621,76.621,0,0,1-13.859,11.118,68.229,68.229,0,0,1-7.784,4.222c-1.332.628-2.683,1.214-4.06,1.733a39.217,39.217,0,0,1-4.177,1.378l-1.228-2.2a39.211,39.211,0,0,0,4.178-1.378c1.376-.519,2.727-1.1,4.06-1.733a68.248,68.248,0,0,0,7.784-4.222,76.621,76.621,0,0,0,13.859-11.118A77.034,77.034,0,0,0-350.872,424.214Z" transform="translate(386.586 -424.214)" fill="none"/>
    </clipPath>
  </defs>
  <g id="Group_3807" data-name="Group 3807" transform="translate(-1067 -3384)">
    <rect id="Rectangle_2078" data-name="Rectangle 2078" width="97" height="97" transform="translate(1067 3384)" fill="none"/>
    <g id="Group_4426" data-name="Group 4426" transform="translate(1488.608 3020.782)">
      <g id="Group_4426-2" data-name="Group 4426" transform="translate(-367.442 373.715)">
        <path id="Path_3515" data-name="Path 3515" d="M-350.827,428.165V379.693l7.209,4.162,0,48.475Z" transform="translate(350.827 -375.529)" fill="#3e954e"/>
        <path id="Path_3516" data-name="Path 3516" d="M-333.282,428.165V379.693l-7.215,4.162,0,48.475Z" transform="translate(347.706 -375.529)" fill="#208048"/>
        <path id="Path_3517" data-name="Path 3517" d="M-336.4,377.891l-7.212-4.164-7.212,4.164,7.209,4.162Z" transform="translate(350.827 -373.727)" fill="#50b262"/>
      </g>
      <g id="Group_4427" data-name="Group 4427" transform="translate(-380.354 392.637)">
        <path id="Path_3518" data-name="Path 3518" d="M-369.328,441.24V406.8l7.209,4.162,0,34.439Z" transform="translate(369.328 -402.641)" fill="#3e954e"/>
        <path id="Path_3519" data-name="Path 3519" d="M-351.784,441.24V406.8L-359,410.967l0,34.439Z" transform="translate(366.208 -402.641)" fill="#208048"/>
        <path id="Path_3520" data-name="Path 3520" d="M-354.9,405l-7.212-4.164L-369.328,405l7.209,4.162Z" transform="translate(369.328 -400.839)" fill="#50b262"/>
      </g>
      <g id="Group_4428" data-name="Group 4428" transform="translate(-392.915 409.832)">
        <path id="Path_3521" data-name="Path 3521" d="M-387.326,453.568V431.443l7.209,4.162,0,22.129Z" transform="translate(387.326 -427.279)" fill="#3e954e"/>
        <path id="Path_3522" data-name="Path 3522" d="M-369.781,453.568V431.443L-377,435.6l0,22.129Z" transform="translate(384.205 -427.279)" fill="#208048"/>
        <path id="Path_3523" data-name="Path 3523" d="M-372.9,429.64l-7.212-4.164-7.212,4.164,7.209,4.162Z" transform="translate(387.326 -425.477)" fill="#50b262"/>
      </g>
      <g id="Group_4429" data-name="Group 4429" transform="translate(-405.829 421.204)">
        <path id="Path_3524" data-name="Path 3524" d="M-405.829,463.376V447.736l7.209,4.162,0,15.643Z" transform="translate(405.829 -443.573)" fill="#3e954e"/>
        <path id="Path_3525" data-name="Path 3525" d="M-388.285,463.376V447.736L-395.5,451.9l0,15.643Z" transform="translate(402.709 -443.573)" fill="#208048"/>
        <path id="Path_3526" data-name="Path 3526" d="M-391.405,445.934l-7.212-4.164-7.212,4.164,7.209,4.162Z" transform="translate(405.829 -441.77)" fill="#50b262"/>
      </g>
      <g id="Group_4449" data-name="Group 4449" transform="translate(-392.399 373.688)">
        <g id="Group_4448" data-name="Group 4448">
          <g id="Group_4447" data-name="Group 4447" style="isolation: isolate">
            <g id="Group_4430" data-name="Group 4430" transform="translate(38.177 12.575)">
              <path id="Path_3527" data-name="Path 3527" d="M-325.84,391.705l1.227,2.2-6.045,2.028-1.227-2.2Z" transform="translate(331.885 -391.705)" fill="#3e6823"/>
            </g>
            <g id="Group_4431" data-name="Group 4431" transform="translate(48.474)">
              <path id="Path_3528" data-name="Path 3528" d="M-317.13,373.688l1.227,2.2,2.849,17.139-1.227-2.2Z" transform="translate(317.13 -373.688)" fill="#50862d"/>
            </g>
            <g id="Group_4432" data-name="Group 4432" transform="translate(46.673 13.025)">
              <path id="Path_3529" data-name="Path 3529" d="M-315.061,396.465l1.227,2.2-4.65-4.114-1.227-2.2Z" transform="translate(319.711 -392.351)" fill="#3d6622"/>
            </g>
            <g id="Group_4435" data-name="Group 4435" transform="translate(40.607 13.025)" style="isolation: isolate">
              <g id="Group_4434" data-name="Group 4434" clip-path="url(#clip-path)">
                <g id="Group_4433" data-name="Group 4433" style="isolation: isolate">
                  <path id="Path_3530" data-name="Path 3530" d="M-320.338,392.351l1.227,2.2q-.629,2.366-1.448,4.7l-1.227-2.2q.819-2.327,1.448-4.7" transform="translate(326.404 -392.351)" fill="#4c7e2a"/>
                  <path id="Path_3531" data-name="Path 3531" d="M-323.431,399.08l1.227,2.2a62.566,62.566,0,0,1-3.8,8.653l-1.227-2.2a62.611,62.611,0,0,0,3.8-8.652" transform="translate(328.049 -394.384)" fill="#497a29"/>
                  <path id="Path_3532" data-name="Path 3532" d="M-327.585,411.477l1.227,2.2q-.4.746-.817,1.484l-1.228-2.2q.42-.737.818-1.484" transform="translate(328.403 -398.129)" fill="#477627"/>
                </g>
              </g>
            </g>
            <g id="Group_4436" data-name="Group 4436" transform="translate(39.485 27.857)">
              <path id="Path_3534" data-name="Path 3534" d="M-328.888,413.6l1.227,2.2-1.122,1.912-1.227-2.2Z" transform="translate(330.011 -413.603)" fill="#4a7c29"/>
            </g>
            <g id="Group_4439" data-name="Group 4439" transform="translate(38.275 29.77)" style="isolation: isolate">
              <g id="Group_4438" data-name="Group 4438" clip-path="url(#clip-path-2)">
                <g id="Group_4437" data-name="Group 4437" style="isolation: isolate">
                  <path id="Path_3535" data-name="Path 3535" d="M-330.535,416.343l1.227,2.2c-.38.633-.8,1.237-1.209,1.86l-1.228-2.2c.406-.623.829-1.227,1.21-1.86" transform="translate(331.744 -416.343)" fill="#477627"/>
                </g>
              </g>
            </g>
            <g id="Group_4442" data-name="Group 4442" transform="translate(35.714 31.63)" style="isolation: isolate">
              <g id="Group_4441" data-name="Group 4441" clip-path="url(#clip-path-3)">
                <g id="Group_4440" data-name="Group 4440" style="isolation: isolate">
                  <path id="Path_3537" data-name="Path 3537" d="M-332.465,419.008l1.228,2.2c-.519.828-1.089,1.625-1.667,2.414l-1.227-2.2c.579-.789,1.149-1.586,1.667-2.414" transform="translate(335.027 -419.008)" fill="#477627"/>
                  <path id="Path_3538" data-name="Path 3538" d="M-334.447,422.467l1.227,2.2c-.242.331-.487.661-.729.992l-1.227-2.2c.242-.332.486-.661.729-.992" transform="translate(335.342 -420.053)" fill="#447226"/>
                  <path id="Path_3539" data-name="Path 3539" d="M-335.248,423.889l1.227,2.2-.166.228-1.227-2.2.166-.227" transform="translate(335.414 -420.483)" fill="#477627"/>
                </g>
              </g>
            </g>
            <g id="Group_4445" data-name="Group 4445" transform="translate(0 35.263)" style="isolation: isolate">
              <g id="Group_4444" data-name="Group 4444" clip-path="url(#clip-path-4)">
                <g id="Group_4443" data-name="Group 4443" style="isolation: isolate">
                  <path id="Path_3541" data-name="Path 3541" d="M-337.942,424.214l1.227,2.2a77.042,77.042,0,0,1-5.833,6.73l-.007.007-1.227-2.2.007-.007a77.034,77.034,0,0,0,5.833-6.73" transform="translate(373.656 -424.214)" fill="#447226"/>
                  <path id="Path_3542" data-name="Path 3542" d="M-348.124,433.867l1.227,2.2a76.914,76.914,0,0,1-10.031,8.554l-1.227-2.2a76.957,76.957,0,0,0,10.031-8.554" transform="translate(377.997 -427.13)" fill="#426e25"/>
                  <path id="Path_3543" data-name="Path 3543" d="M-366.744,446.124l1.227,2.2q-1.872,1.337-3.821,2.556a68.233,68.233,0,0,1-7.784,4.222c-1.332.628-2.683,1.214-4.06,1.733a39.211,39.211,0,0,1-4.177,1.378l-1.228-2.2a39.232,39.232,0,0,0,4.178-1.378c1.376-.519,2.727-1.1,4.06-1.733a68.243,68.243,0,0,0,7.784-4.222q1.947-1.219,3.821-2.556" transform="translate(386.586 -430.833)" fill="#3f6a23"/>
                </g>
              </g>
            </g>
            <g id="Group_4446" data-name="Group 4446">
              <path id="Path_3545" data-name="Path 3545" d="M-338.111,373.688l2.849,17.139-4.65-4.114a62.556,62.556,0,0,1-6.066,14.832l-1.122,1.912c-.38.633-.8,1.237-1.21,1.86-.785,1.256-1.689,2.436-2.561,3.633a77.03,77.03,0,0,1-5.833,6.73A76.621,76.621,0,0,1-370.565,426.8a68.248,68.248,0,0,1-7.784,4.222c-1.333.628-2.684,1.214-4.06,1.733a39.2,39.2,0,0,1-4.178,1.378,123.178,123.178,0,0,0,14.356-9.672,111.252,111.252,0,0,0,12.6-11.449c1.919-2.066,3.745-4.214,5.49-6.415,1.7-2.241,3.341-4.511,4.837-6.886a88.728,88.728,0,0,0,6.936-13.447l-6.045,2.029Z" transform="translate(386.586 -373.688)" fill="#bcc98f"/>
            </g>
          </g>
        </g>
      </g>
    </g>
  </g>
</svg>
