<?xml version="1.0" encoding="utf-8"?>
<!-- Generator: Adobe Illustrator 24.2.0, SVG Export Plug-In . SVG Version: 6.00 Build 0)  -->
<svg version="1.1" id="Layer_1" xmlns="http://www.w3.org/2000/svg" xmlns:xlink="http://www.w3.org/1999/xlink" x="0px" y="0px"
	 viewBox="0 0 45 14" style="enable-background:new 0 0 45 14;" xml:space="preserve">
<style type="text/css">
	.st0{fill:#1D8649;}
	.st1{enable-background:new    ;}
	.st2{fill:#FFFFFF;}
</style>
<g id="Group_3338" transform="translate(-770 -36.086)">
	<path id="Rectangle_1708" class="st0" d="M774,37h41l0,0v8c0,2.2-1.8,4-4,4h-41l0,0v-8C770,38.8,771.8,37,774,37z"/>
	<g class="st1">
		<path class="st2" d="M783.7,40.3c0.1,0,0.3,0,0.4,0c0.2,0,0.3,0,0.5,0c0.2,0,0.3,0,0.4,0.1s0.3,0.1,0.4,0.1
			c0.1,0.1,0.2,0.1,0.3,0.2s0.2,0.2,0.2,0.3s0.1,0.2,0.2,0.4s0.1,0.3,0.1,0.4c0,0.1,0,0.3-0.1,0.4s-0.1,0.2-0.1,0.3
			s-0.1,0.2-0.2,0.3s-0.2,0.2-0.3,0.2c0.2,0,0.3,0.1,0.4,0.2c0.1,0.1,0.2,0.2,0.3,0.3s0.1,0.3,0.2,0.4c0,0.1,0.1,0.3,0.1,0.4
			c0,0.2,0,0.4-0.1,0.6s-0.2,0.4-0.4,0.5s-0.4,0.3-0.6,0.4c-0.3,0.1-0.5,0.1-0.9,0.1h-2.9v-5.7H783.7z M783.9,42.7
			c0.2,0,0.3,0,0.5,0c0.1,0,0.2-0.1,0.3-0.1s0.1-0.1,0.2-0.2s0.1-0.2,0.1-0.3c0-0.1,0-0.3-0.1-0.3s-0.1-0.2-0.2-0.2
			c-0.1,0-0.2-0.1-0.3-0.1s-0.2,0-0.4,0h-1.1v1.3H783.9z M784.3,45.1c0.1,0,0.3,0,0.4-0.1s0.2-0.1,0.3-0.2c0.1-0.1,0.1-0.2,0.2-0.2
			c0-0.1,0.1-0.2,0.1-0.3c0-0.1,0-0.2-0.1-0.3c-0.1-0.1-0.1-0.2-0.2-0.2s-0.2-0.1-0.3-0.1c-0.1,0-0.2,0-0.4,0h-1.3v1.5H784.3z"/>
		<path class="st2" d="M792.2,40.3v1h-3.1v1.2h2.7v1h-2.7v1.4h3.1v1h-4.3v-5.7H792.2z"/>
		<path class="st2" d="M793,41.4v-1.1h4.5v1.1h-1.6v4.6h-1.3v-4.6H793z"/>
		<path class="st2" d="M803.8,46.1h-1.3l-0.5-1.4h-2.1l-0.5,1.4H798l2.2-5.7h1.3L803.8,46.1z M800.2,43.8h1.4l-0.7-2L800.2,43.8z"/>
	</g>
</g>
</svg>
