<svg xmlns="http://www.w3.org/2000/svg" width="20.701" height="20.701" viewBox="0 0 20.701 20.701"><defs><style>.a{fill:#2c3e50;}</style></defs><g transform="translate(-10 -10)"><path class="a" d="M28.483,10H15.175a2.22,2.22,0,0,0-2.218,2.218v2.218H11.479A1.478,1.478,0,0,0,10,15.915v8.872a1.478,1.478,0,0,0,1.479,1.479h1.479v2.218A2.22,2.22,0,0,0,15.175,30.7H28.483A2.22,2.22,0,0,0,30.7,28.483V12.218A2.22,2.22,0,0,0,28.483,10Zm-9.9,13.023h-1.77l-.9-1.337-.9,1.335h-1.77l1.77-2.67-1.77-2.672h1.77l.9,1.335.9-1.335h1.77l-1.77,2.672Zm10.636,5.46a.74.74,0,0,1-.739.739H15.175a.74.74,0,0,1-.739-.739V26.265h5.915a1.478,1.478,0,0,0,1.479-1.479V23.308H27a.739.739,0,0,0,0-1.479H21.829V20.351H27a.739.739,0,0,0,0-1.479H21.829V17.393H27a.739.739,0,1,0,0-1.479H21.829a1.478,1.478,0,0,0-1.479-1.479H14.436V12.218a.74.74,0,0,1,.739-.739H28.483a.74.74,0,0,1,.739.739Z" transform="translate(0 0)"/></g></svg>